<svg width="24" height="24" viewBox="0 0 24 24" fill="none" xmlns="http://www.w3.org/2000/svg">
<path fill-rule="evenodd" clip-rule="evenodd" d="M17.0623 3.71045C17.0623 2.21351 18.2795 1 19.7811 1C21.2827 1 22.5 2.21351 22.5 3.71045C22.5 5.20738 21.2827 6.42089 19.7811 6.42089C18.2795 6.42089 17.0623 5.20738 17.0623 3.71045ZM20.9738 3.71045C20.9738 3.05379 20.4398 2.52147 19.7811 2.52147C19.1225 2.52147 18.5884 3.05379 18.5884 3.71045C18.5884 4.3671 19.1225 4.89942 19.7811 4.89942C20.4398 4.89942 20.9738 4.3671 20.9738 3.71045ZM15.7041 8.91723C15.9623 8.58512 16.4416 8.52449 16.7747 8.78182C17.0776 9.01576 17.1554 9.43192 16.9731 9.75521L16.9105 9.84908L13.9303 13.6836C13.6946 13.9869 13.2746 14.0636 12.9499 13.8791L12.8557 13.8159L9.98767 11.5701L7.41271 14.907C7.17907 15.2098 6.76188 15.2887 6.43699 15.1081L6.34258 15.0461C6.03893 14.8132 5.95972 14.3973 6.14092 14.0733L6.20312 13.9793L9.24852 10.0334C9.48382 9.72854 9.90483 9.65095 10.2302 9.83575L10.3247 9.89906L13.1936 12.1463L15.7041 8.91723ZM15.3848 2.61489C15.3848 2.19475 15.0431 1.85415 14.6216 1.85415H7.227L6.98869 1.85812C3.67897 1.96897 1.5 4.39215 1.5 7.83269V16.0308L1.50365 16.2755C1.60566 19.6772 3.83824 22 7.227 22H15.9814L16.2197 21.996C19.5307 21.8855 21.7084 19.4696 21.7084 16.0308V8.89111L21.7014 8.78787C21.6509 8.41656 21.3316 8.13037 20.9453 8.13037C20.5238 8.13037 20.1822 8.47096 20.1822 8.89111V16.0308L20.178 16.2669C20.0857 18.8361 18.4811 20.4785 15.9814 20.4785H7.227L7.00032 20.474C4.53557 20.3761 3.0262 18.6706 3.0262 16.0308V7.83269L3.0304 7.59635C3.12275 5.02442 4.72945 3.37562 7.227 3.37562H14.6216L14.7252 3.36868C15.0977 3.31831 15.3848 3.00002 15.3848 2.61489Z" fill="#8D819C" stroke="#8D819C"/>
</svg>
