<svg width="16" height="17" viewBox="0 0 16 17" fill="none" xmlns="http://www.w3.org/2000/svg">
<path d="M12.3297 2.4027H2.73199L3.77174 1.37095C3.92235 1.22034 4.00696 1.01607 4.00696 0.803082C4.00696 0.590092 3.92235 0.385824 3.77174 0.235217C3.62113 0.0846102 3.41687 0 3.20388 0C2.99089 0 2.78662 0.0846102 2.63601 0.235217L0.236582 2.63465C0.161617 2.709 0.102116 2.79746 0.0615109 2.89492C0.0209056 2.99239 0 3.09693 0 3.20251C0 3.3081 0.0209056 3.41264 0.0615109 3.5101C0.102116 3.60756 0.161617 3.69602 0.236582 3.77038L2.63601 6.16981C2.71036 6.24477 2.79882 6.30427 2.89629 6.34488C2.99375 6.38548 3.09829 6.40639 3.20388 6.40639C3.30946 6.40639 3.414 6.38548 3.51146 6.34488C3.60893 6.30427 3.69739 6.24477 3.77174 6.16981C3.84671 6.09545 3.90621 6.00699 3.94681 5.90953C3.98742 5.81207 4.00832 5.70753 4.00832 5.60194C4.00832 5.49636 3.98742 5.39182 3.94681 5.29435C3.90621 5.19689 3.84671 5.10843 3.77174 5.03408L2.73199 4.00232H12.3297C12.4936 3.99914 12.6564 4.02827 12.809 4.08805C12.9616 4.14783 13.101 4.23709 13.2191 4.35073C13.3372 4.46437 13.4317 4.60016 13.4973 4.75034C13.5629 4.90053 13.5983 5.06217 13.6014 5.22603V7.20156C13.6014 7.41368 13.6857 7.61712 13.8357 7.76711C13.9857 7.9171 14.1891 8.00137 14.4012 8.00137C14.6133 8.00137 14.8168 7.9171 14.9668 7.76711C15.1168 7.61712 15.201 7.41368 15.201 7.20156V5.22603C15.1979 4.85211 15.1211 4.48247 14.9751 4.13822C14.8291 3.79396 14.6168 3.48184 14.3501 3.21967C14.0835 2.95749 13.7678 2.75041 13.4212 2.61023C13.0745 2.47006 12.7036 2.39954 12.3297 2.4027ZM12.5696 9.83293C12.419 9.68233 12.2148 9.59772 12.0018 9.59772C11.7888 9.59772 11.5845 9.68233 11.4339 9.83293C11.2833 9.98354 11.1987 10.1878 11.1987 10.4008C11.1987 10.6138 11.2833 10.8181 11.4339 10.9687L12.4737 12.0004H2.87595C2.7121 12.0036 2.54922 11.9745 2.39662 11.9147C2.24402 11.8549 2.1047 11.7656 1.9866 11.652C1.86851 11.5384 1.77396 11.4026 1.70835 11.2524C1.64275 11.1022 1.60738 10.9406 1.60426 10.7767V8.80118C1.60426 8.58906 1.51999 8.38562 1.37 8.23563C1.22 8.08564 1.01657 8.00137 0.804447 8.00137C0.592325 8.00137 0.38889 8.08564 0.238896 8.23563C0.088903 8.38562 0.00463757 8.58906 0.00463757 8.80118V10.7767C0.0077753 11.1506 0.0845345 11.5203 0.230532 11.8645C0.37653 12.2088 0.588907 12.5209 0.855536 12.7831C1.12217 13.0452 1.43782 13.2523 1.78449 13.3925C2.13115 13.5327 2.50204 13.6032 2.87595 13.6H12.4737L11.4339 14.6318C11.359 14.7061 11.2995 14.7946 11.2588 14.8921C11.2182 14.9895 11.1973 15.0941 11.1973 15.1997C11.1973 15.3052 11.2182 15.4098 11.2588 15.5072C11.2995 15.6047 11.359 15.6932 11.4339 15.7675C11.5083 15.8425 11.5967 15.902 11.6942 15.9426C11.7917 15.9832 11.8962 16.0041 12.0018 16.0041C12.1074 16.0041 12.2119 15.9832 12.3094 15.9426C12.4068 15.902 12.4953 15.8425 12.5696 15.7675L14.9691 13.3681C15.044 13.2937 15.1035 13.2053 15.1441 13.1078C15.1848 13.0104 15.2057 12.9058 15.2057 12.8002C15.2057 12.6946 15.1848 12.5901 15.1441 12.4926C15.1035 12.3952 15.044 12.3067 14.9691 12.2324L12.5696 9.83293Z" fill="#ffffff"/>
</svg>
