<svg width="20" height="20" viewBox="0 0 20 20" fill="none" xmlns="http://www.w3.org/2000/svg">
<path d="M13.1111 11.7778H12.4089L12.16 11.5378C13.0311 10.5244 13.5556 9.20889 13.5556 7.77778C13.5556 4.58667 10.9689 2 7.77778 2C4.58667 2 2 4.58667 2 7.77778C2 10.9689 4.58667 13.5556 7.77778 13.5556C9.20889 13.5556 10.5244 13.0311 11.5378 12.16L11.7778 12.4089V13.1111L16.2222 17.5467L17.5467 16.2222L13.1111 11.7778ZM7.77778 11.7778C5.56444 11.7778 3.77778 9.99111 3.77778 7.77778C3.77778 5.56444 5.56444 3.77778 7.77778 3.77778C9.99111 3.77778 11.7778 5.56444 11.7778 7.77778C11.7778 9.99111 9.99111 11.7778 7.77778 11.7778Z" fill="white"/>
</svg>