<svg width="16" height="16" viewBox="0 0 16 16" fill="none" xmlns="http://www.w3.org/2000/svg">
<path d="M5.87715 5.87783C6.2703 5.48745 6.27116 4.85178 5.87902 4.46039L2.11534 0.703978C1.72568 0.315072 1.09462 0.315377 0.705341 0.704659C0.315792 1.09421 0.315792 1.72579 0.705341 2.11534L4.46539 5.87539C4.85494 6.26494 5.48623 6.266 5.87715 5.87783ZM10.9828 0C10.8047 0 10.7154 0.215428 10.8414 0.341421L12.54 2.04L0.704718 13.8847C0.315468 14.2743 0.315594 14.9056 0.705 15.295C1.09441 15.6844 1.72572 15.6845 2.11528 15.2953L13.96 3.46L15.6586 5.15858C15.7846 5.28457 16 5.19534 16 5.01716V0.6C16 0.268629 15.7314 0 15.4 0H10.9828ZM11.535 10.115C11.1456 9.72564 10.5144 9.72564 10.125 10.115C9.73564 10.5044 9.73564 11.1356 10.125 11.525L12.55 13.95L10.8414 15.6586C10.7154 15.7846 10.8047 16 10.9828 16H15.4C15.7314 16 16 15.7314 16 15.4V10.9828C16 10.8047 15.7846 10.7154 15.6586 10.8414L13.96 12.54L11.535 10.115Z" fill="#ffffff"/>
</svg>
