<svg width="16" height="15" viewBox="0 0 16 15" fill="none" xmlns="http://www.w3.org/2000/svg">
<path d="M9.83269 0.832886H3.8331C3.27981 0.832886 2.80651 1.1662 2.60652 1.64616L0.593327 6.34584C0.533331 6.49916 0.5 6.65915 0.5 6.83247V8.16572C0.5 8.899 1.09996 9.49896 1.83324 9.49896H6.03962L5.40633 12.5454L5.38633 12.7587C5.38633 13.032 5.49966 13.2854 5.67964 13.4654L6.38626 14.1653L10.7793 9.77227C11.0193 9.53229 11.1659 9.19898 11.1659 8.83234V2.16613C11.1659 1.43284 10.566 0.832886 9.83269 0.832886ZM12.4992 0.832886V8.83234H15.1657V0.832886H12.4992Z" fill="#ffffff"/>
</svg>
